<?xml version="1.0" encoding="utf-8"?>
<!-- Generator: Adobe Illustrator 16.0.4, SVG Export Plug-In . SVG Version: 6.00 Build 0)  -->
<!DOCTYPE svg PUBLIC "-//W3C//DTD SVG 1.1//EN" "http://www.w3.org/Graphics/SVG/1.1/DTD/svg11.dtd">
<svg version="1.1" id="Layer_1" xmlns="http://www.w3.org/2000/svg" xmlns:xlink="http://www.w3.org/1999/xlink" x="0px" y="0px"
	 width="50px" height="50px" viewBox="0 0 50 50" enable-background="new 0 0 50 50" xml:space="preserve">
<path d="M22.503,30.555l3.399-2.106l-1.249-2.015c0.64-0.646,1.181-1.396,1.595-2.229l2.312,0.541l0.909-3.896l-2.312-0.541
	c-0.001-0.92-0.15-1.828-0.443-2.7l2.021-1.253l-2.108-3.397l-2.02,1.252c-0.651-0.647-1.399-1.186-2.223-1.594l0.542-2.313
	l-3.895-0.912l-0.54,2.306c-0.942,0.002-1.853,0.158-2.706,0.441l-1.249-2.012l-3.398,2.108l1.248,2.011
	c-0.64,0.646-1.181,1.396-1.595,2.229l-2.31-0.542l-0.913,3.896l2.313,0.543c0.001,0.92,0.15,1.828,0.443,2.699l-2.021,1.252
	l2.107,3.4l2.022-1.253c0.65,0.647,1.397,1.185,2.221,1.595l-0.542,2.314l3.895,0.912l0.541-2.309
	c0.942-0.002,1.853-0.158,2.706-0.441L22.503,30.555z M13.999,19.282c0.495-2.111,2.351-3.586,4.514-3.586
	c0.356,0,0.715,0.041,1.066,0.123c1.208,0.282,2.232,1.02,2.886,2.072c0.654,1.053,0.858,2.299,0.575,3.507
	c-0.495,2.111-2.352,3.586-4.515,3.586c-0.356,0-0.714-0.042-1.066-0.124c-1.207-0.281-2.231-1.019-2.886-2.072
	C13.919,21.735,13.716,20.489,13.999,19.282z M36.022,33.137l0.881-0.546l-1.58-2.551l-0.883,0.547
	c-0.25-0.221-0.521-0.415-0.813-0.586l0.237-1.01l-2.921-0.685l-0.234,1.001c-0.343,0.021-0.675,0.076-0.998,0.161l-0.541-0.871
	l-2.549,1.582l0.533,0.858c-0.222,0.254-0.413,0.535-0.584,0.832l-0.996-0.232l-0.686,2.92l1.008,0.236
	c0.021,0.336,0.074,0.664,0.161,0.99l-0.878,0.545l1.582,2.549l0.877-0.545c0.254,0.223,0.525,0.418,0.816,0.586l-0.236,1.007
	l2.921,0.684l0.234-1c0.342-0.021,0.674-0.075,0.997-0.161l0.541,0.873l2.549-1.582l-0.533-0.859
	c0.224-0.254,0.414-0.535,0.584-0.832l0.996,0.232l0.686-2.92l-1.009-0.236C36.162,33.786,36.109,33.458,36.022,33.137z
	 M33.163,34.956c-0.27,1.153-1.444,1.897-2.618,1.623c-0.565-0.133-1.047-0.478-1.353-0.972c-0.308-0.493-0.402-1.077-0.27-1.645
	c0.232-0.991,1.104-1.685,2.117-1.685c0.167,0,0.334,0.021,0.498,0.059C32.708,32.614,33.437,33.786,33.163,34.956z M40.605,23.374
	l1.369,0.32l0.457-1.947l-1.365-0.319c0.009-0.554-0.081-1.103-0.267-1.623l1.193-0.741l-1.056-1.699l-1.192,0.74
	c-0.385-0.396-0.836-0.721-1.336-0.959l0.32-1.365l-1.947-0.457l-0.319,1.362c-0.023,0-0.049-0.004-0.073-0.004
	c-0.544,0-1.068,0.093-1.558,0.265l-0.731-1.183l-1.7,1.053l0.74,1.196c-0.391,0.381-0.716,0.828-0.956,1.335l-1.37-0.32
	l-0.455,1.947l1.363,0.319c-0.009,0.554,0.081,1.102,0.268,1.623l-1.192,0.74l1.056,1.698l1.191-0.739
	c0.385,0.396,0.836,0.722,1.336,0.959l-0.319,1.366l1.946,0.457l0.32-1.364c0.024,0,0.048,0.004,0.072,0.004
	c0.543,0,1.066-0.092,1.556-0.264l0.734,1.184l1.698-1.056l-0.74-1.194C40.039,24.329,40.364,23.881,40.605,23.374z M33.787,20.751
	c0.286-1.219,1.355-2.069,2.603-2.069c0.206,0,0.413,0.024,0.616,0.071c0.696,0.164,1.287,0.588,1.664,1.195
	s0.495,1.326,0.331,2.023c-0.332,1.417-1.779,2.335-3.218,1.994c-0.696-0.163-1.288-0.588-1.665-1.195S33.624,21.446,33.787,20.751z
	"/>
</svg>
