<?xml version="1.0" encoding="UTF-8" standalone="no"?>
<!-- Created with Inkscape (http://www.inkscape.org/) -->

<svg
   xmlns:dc="http://purl.org/dc/elements/1.1/"
   xmlns:cc="http://creativecommons.org/ns#"
   xmlns:rdf="http://www.w3.org/1999/02/22-rdf-syntax-ns#"
   xmlns:svg="http://www.w3.org/2000/svg"
   xmlns="http://www.w3.org/2000/svg"
   xmlns:sodipodi="http://sodipodi.sourceforge.net/DTD/sodipodi-0.dtd"
   xmlns:inkscape="http://www.inkscape.org/namespaces/inkscape"
   width="955.21326"
   height="806.81201"
   id="svg2"
   version="1.1"
   inkscape:version="0.48.1 r9760"
   sodipodi:docname="Linux terminal.svg">
  <defs
     id="defs4">
    <filter
       inkscape:collect="always"
       id="filter3768"
       x="-0.23485714"
       width="1.4697143"
       y="-0.0061573032"
       height="1.0123146"
       color-interpolation-filters="sRGB">
      <feGaussianBlur
         inkscape:collect="always"
         stdDeviation="1.9571428"
         id="feGaussianBlur3770" />
    </filter>
    <filter
       inkscape:collect="always"
       id="filter3868"
       color-interpolation-filters="sRGB">
      <feGaussianBlur
         inkscape:collect="always"
         stdDeviation="1.6281774"
         id="feGaussianBlur3870" />
    </filter>
    <filter
       inkscape:collect="always"
       id="filter3872"
       color-interpolation-filters="sRGB">
      <feGaussianBlur
         inkscape:collect="always"
         stdDeviation="1.6281774"
         id="feGaussianBlur3874" />
    </filter>
    <filter
       inkscape:collect="always"
       id="filter3876"
       color-interpolation-filters="sRGB">
      <feGaussianBlur
         inkscape:collect="always"
         stdDeviation="1.6281774"
         id="feGaussianBlur3878" />
    </filter>
    <filter
       inkscape:collect="always"
       id="filter3951"
       color-interpolation-filters="sRGB">
      <feGaussianBlur
         inkscape:collect="always"
         stdDeviation="24.175781"
         id="feGaussianBlur3953" />
    </filter>
  </defs>
  <sodipodi:namedview
     id="base"
     pagecolor="#ffffff"
     bordercolor="#666666"
     borderopacity="1.0"
     inkscape:pageopacity="0.0"
     inkscape:pageshadow="2"
     inkscape:zoom="0.71198671"
     inkscape:cx="365.04184"
     inkscape:cy="432.33066"
     inkscape:document-units="px"
     inkscape:current-layer="layer1"
     showgrid="false"
     fit-margin-top="0"
     fit-margin-left="0"
     fit-margin-right="0"
     fit-margin-bottom="0"
     inkscape:window-width="1230"
     inkscape:window-height="776"
     inkscape:window-x="50"
     inkscape:window-y="24"
     inkscape:window-maximized="1" />
  <metadata
     id="metadata7">
    <rdf:RDF>
      <cc:Work
         rdf:about="">
        <dc:format>image/svg+xml</dc:format>
        <dc:type
           rdf:resource="http://purl.org/dc/dcmitype/StillImage" />
        <dc:title />
      </cc:Work>
    </rdf:RDF>
  </metadata>
  <g
     inkscape:label="Layer 1"
     inkscape:groupmode="layer"
     id="layer1"
     transform="translate(825.53734,1216.4697)">
    <g
       id="g3959"
       transform="matrix(0.81343642,0,0,0.81343642,469.9658,-421.25883)">
      <path
         inkscape:connector-curvature="0"
         id="rect3902"
         d="m -1477.483,-919.57256 c -31.6572,0 -57.125,25.49911 -57.125,57.15625 l 0,14.28125 1.0937,0 0,804.375 1057.15622,0 0,-805.71875 -1.125,0 0,-12.9375 c 0,-31.65714 -25.4678,-57.15625 -57.125,-57.15625 l -942.87492,0 z"
         style="fill:#000000;fill-opacity:1;stroke:none;filter:url(#filter3951)" />
      <g
         transform="translate(-508.69541,-813.91266)"
         id="g3880">
        <g
           id="g3851"
           transform="translate(0,-2)">
          <rect
             style="fill:#000080;fill-opacity:1;stroke:none"
             id="rect3849"
             width="1057.1428"
             height="805.71429"
             x="-1028.8805"
             y="-25.412277" />
          <rect
             y="-25.412277"
             x="-1028.8805"
             height="805.71429"
             width="1057.1428"
             id="rect2985"
             style="opacity:0.65277782;fill:#333333;fill-opacity:1;stroke:none" />
        </g>
        <path
           style="fill:#333333;fill-opacity:1;stroke:none"
           d="m -972.85936,-97.506661 c -31.65714,0 -57.12504,25.499107 -57.12504,57.15625 l 0,14.28125 1057.124991,0 0,-14.28125 c 0,-31.657143 -25.4677995,-57.15625 -57.125,-57.15625 l -942.874951,0 z"
           id="rect2987"
           inkscape:connector-curvature="0" />
        <rect
           style="fill:none;stroke:#ffffff;filter:url(#filter3768)"
           id="rect3760"
           width="20"
           height="762.85712"
           x="-5.7142859"
           y="-10.49496" />
        <rect
           y="20.117252"
           x="1.7345817"
           height="701.63269"
           width="5.1022649"
           id="rect3762"
           style="fill:#ffffff;stroke:#ffffff;stroke-width:0.48439521" />
        <g
           id="g3776"
           transform="matrix(0,-1,-1,0,-112.62649,575.07873)">
          <rect
             style="fill:none;stroke:#ffffff;filter:url(#filter3768)"
             id="rect3772"
             width="20"
             height="762.85712"
             x="-189.83673"
             y="9.9630899" />
          <rect
             y="40.575302"
             x="-182.38786"
             height="701.63269"
             width="5.1022649"
             id="rect3774"
             style="fill:#ffffff;stroke:#ffffff;stroke-width:0.48439521" />
        </g>
        <path
           transform="matrix(0.63812282,0,0,0.63812282,-441.21818,29.101286)"
           d="m -755.37413,-147.58113 c 0,13.47149 -10.9208,24.39229 -24.39229,24.39229 -13.47149,0 -24.39229,-10.9208 -24.39229,-24.39229 0,-13.47149 10.9208,-24.39229 24.39229,-24.39229 13.47149,0 24.39229,10.9208 24.39229,24.39229 z"
           sodipodi:ry="24.39229"
           sodipodi:rx="24.39229"
           sodipodi:cy="-147.58113"
           sodipodi:cx="-779.76642"
           id="path3862"
           style="fill:#000000;fill-opacity:1;stroke:none;filter:url(#filter3868)"
           sodipodi:type="arc" />
        <path
           sodipodi:type="arc"
           style="fill:#800000;fill-opacity:1;stroke:none"
           id="path3809"
           sodipodi:cx="-779.76642"
           sodipodi:cy="-147.58113"
           sodipodi:rx="24.39229"
           sodipodi:ry="24.39229"
           d="m -755.37413,-147.58113 c 0,13.47149 -10.9208,24.39229 -24.39229,24.39229 -13.47149,0 -24.39229,-10.9208 -24.39229,-24.39229 0,-13.47149 10.9208,-24.39229 24.39229,-24.39229 13.47149,0 24.39229,10.9208 24.39229,24.39229 z"
           transform="matrix(0.63812282,0,0,0.63812282,-441.21818,29.101286)" />
        <path
           sodipodi:type="arc"
           style="fill:#000000;fill-opacity:1;stroke:none;filter:url(#filter3872)"
           id="path3864"
           sodipodi:cx="-779.76642"
           sodipodi:cy="-147.58113"
           sodipodi:rx="24.39229"
           sodipodi:ry="24.39229"
           d="m -755.37413,-147.58113 c 0,13.47149 -10.9208,24.39229 -24.39229,24.39229 -13.47149,0 -24.39229,-10.9208 -24.39229,-24.39229 0,-13.47149 10.9208,-24.39229 24.39229,-24.39229 13.47149,0 24.39229,10.9208 24.39229,24.39229 z"
           transform="matrix(0.63812282,0,0,0.63812282,-401.55752,29.101286)" />
        <path
           transform="matrix(0.63812282,0,0,0.63812282,-401.55752,29.101286)"
           d="m -755.37413,-147.58113 c 0,13.47149 -10.9208,24.39229 -24.39229,24.39229 -13.47149,0 -24.39229,-10.9208 -24.39229,-24.39229 0,-13.47149 10.9208,-24.39229 24.39229,-24.39229 13.47149,0 24.39229,10.9208 24.39229,24.39229 z"
           sodipodi:ry="24.39229"
           sodipodi:rx="24.39229"
           sodipodi:cy="-147.58113"
           sodipodi:cx="-779.76642"
           id="path3811"
           style="fill:#008000;fill-opacity:1;stroke:none"
           sodipodi:type="arc" />
        <path
           transform="matrix(0.63812282,0,0,0.63812282,-364.949,29.101286)"
           d="m -755.37413,-147.58113 c 0,13.47149 -10.9208,24.39229 -24.39229,24.39229 -13.47149,0 -24.39229,-10.9208 -24.39229,-24.39229 0,-13.47149 10.9208,-24.39229 24.39229,-24.39229 13.47149,0 24.39229,10.9208 24.39229,24.39229 z"
           sodipodi:ry="24.39229"
           sodipodi:rx="24.39229"
           sodipodi:cy="-147.58113"
           sodipodi:cx="-779.76642"
           id="path3866"
           style="fill:#000000;fill-opacity:1;stroke:none;filter:url(#filter3876)"
           sodipodi:type="arc" />
        <path
           sodipodi:type="arc"
           style="fill:#000080;fill-opacity:1;stroke:none"
           id="path3813"
           sodipodi:cx="-779.76642"
           sodipodi:cy="-147.58113"
           sodipodi:rx="24.39229"
           sodipodi:ry="24.39229"
           d="m -755.37413,-147.58113 c 0,13.47149 -10.9208,24.39229 -24.39229,24.39229 -13.47149,0 -24.39229,-10.9208 -24.39229,-24.39229 0,-13.47149 10.9208,-24.39229 24.39229,-24.39229 13.47149,0 24.39229,10.9208 24.39229,24.39229 z"
           transform="matrix(0.63812282,0,0,0.63812282,-364.949,29.101286)" />
        <path
           transform="matrix(0.51612903,0,0,0.51612903,352.10185,11.995671)"
           d="m -755.37413,-147.58113 c 0,13.47149 -10.9208,24.39229 -24.39229,24.39229 -13.47149,0 -24.39229,-10.9208 -24.39229,-24.39229 0,-13.47149 10.9208,-24.39229 24.39229,-24.39229 13.47149,0 24.39229,10.9208 24.39229,24.39229 z"
           sodipodi:ry="24.39229"
           sodipodi:rx="24.39229"
           sodipodi:cy="-147.58113"
           sodipodi:cx="-779.76642"
           id="path3838"
           style="fill:#800080;fill-opacity:1;stroke:none"
           sodipodi:type="arc" />
      </g>
      <g
         style="font-size:29.18874168px;font-style:normal;font-weight:normal;line-height:125%;letter-spacing:0px;word-spacing:0px;fill:#ffffff;fill-opacity:1;stroke:none;font-family:Sans"
         id="text3955">
        <path
           d="m -1492.4516,-799.91081 0,1.89726 c 1.1676,-0.87565 2.0919,-1.46915 2.773,-1.78051 0.681,-0.31133 1.3815,-0.46701 2.1016,-0.46702 1.0313,10e-6 1.9848,0.36974 2.8604,1.10917 0.5449,0.44757 0.8173,0.90486 0.8173,1.37187 0,0.40866 -0.1459,0.75892 -0.4378,1.0508 -0.2919,0.29189 -0.6324,0.43784 -1.0216,0.43783 -0.3503,1e-5 -0.7297,-0.17512 -1.1384,-0.5254 -0.4086,-0.35025 -0.7881,-0.52539 -1.1383,-0.5254 -0.4671,10e-6 -1.0411,0.21407 -1.7222,0.64216 -0.6616,0.40865 -1.6929,1.18701 -3.094,2.3351 l 0,4.29074 4.0573,0 c 0.6421,0 1.0897,0.0876 1.3426,0.2627 0.4087,0.31135 0.613,0.71026 0.613,1.19674 0,0.56432 -0.2335,0.98269 -0.7005,1.25511 -0.2335,0.13622 -0.6519,0.20433 -1.2551,0.20433 l -8.6691,0 c -0.6421,0 -1.0897,-0.0973 -1.3427,-0.29189 -0.3892,-0.29189 -0.5837,-0.68107 -0.5837,-1.16755 0,-0.56432 0.2335,-0.98269 0.7005,-1.25512 0.1946,-0.13621 0.6032,-0.20432 1.2259,-0.20432 l 1.693,0 0,-6.91773 -1.0216,0 c -0.6617,10e-6 -1.0995,-0.0973 -1.3135,-0.29189 -0.4087,-0.29187 -0.613,-0.68106 -0.613,-1.16755 0,-0.97294 0.6421,-1.45942 1.9265,-1.45943 l 3.9404,0"
           style="font-variant:normal;font-weight:bold;font-stretch:normal;font-family:TlwgTypewriter;-inkscape-font-specification:TlwgTypewriter Bold"
           id="path3014" />
        <path
           d="m -1474.22,-800.29027 c 2.0627,10e-6 3.814,0.66163 5.254,1.98484 1.4594,1.32323 2.1891,2.92861 2.1891,4.81614 0,1.907 -0.7297,3.52211 -2.1891,4.84533 -1.4595,1.30376 -3.24,1.95564 -5.3416,1.95565 -2.1016,-10e-6 -3.8821,-0.65189 -5.3415,-1.95565 -1.4595,-1.32322 -2.1892,-2.93833 -2.1892,-4.84533 0,-1.92645 0.7297,-3.54156 2.1892,-4.84533 1.4594,-1.30375 3.2691,-1.95564 5.4291,-1.95565 m -0.029,2.91888 c -1.3232,10e-6 -2.4324,0.36973 -3.3275,1.10917 -0.8951,0.73945 -1.3427,1.66376 -1.3427,2.77293 0,1.08972 0.4378,2.01403 1.3135,2.77293 0.8951,0.73945 1.9946,1.10917 3.2983,1.10917 1.3038,0 2.3935,-0.36972 3.2692,-1.10917 0.8951,-0.7589 1.3426,-1.68321 1.3426,-2.77293 0,-1.08971 -0.4475,-2.00429 -1.3426,-2.74374 -0.8757,-0.7589 -1.946,-1.13835 -3.2108,-1.13836"
           style="font-variant:normal;font-weight:bold;font-stretch:normal;font-family:TlwgTypewriter;-inkscape-font-specification:TlwgTypewriter Bold"
           id="path3016" />
        <path
           d="m -1456.7182,-800.29027 c 2.0627,10e-6 3.814,0.66163 5.254,1.98484 1.4594,1.32323 2.1891,2.92861 2.1892,4.81614 -10e-5,1.907 -0.7298,3.52211 -2.1892,4.84533 -1.4594,1.30376 -3.24,1.95564 -5.3415,1.95565 -2.1016,-10e-6 -3.8821,-0.65189 -5.3416,-1.95565 -1.4594,-1.32322 -2.1891,-2.93833 -2.1891,-4.84533 0,-1.92645 0.7297,-3.54156 2.1891,-4.84533 1.4595,-1.30375 3.2692,-1.95564 5.4291,-1.95565 m -0.029,2.91888 c -1.3232,10e-6 -2.4324,0.36973 -3.3275,1.10917 -0.8951,0.73945 -1.3427,1.66376 -1.3427,2.77293 0,1.08972 0.4379,2.01403 1.3135,2.77293 0.8952,0.73945 1.9946,1.10917 3.2984,1.10917 1.3037,0 2.3934,-0.36972 3.2691,-1.10917 0.8951,-0.7589 1.3427,-1.68321 1.3427,-2.77293 0,-1.08971 -0.4476,-2.00429 -1.3427,-2.74374 -0.8757,-0.7589 -1.9459,-1.13835 -3.2108,-1.13836"
           style="font-variant:normal;font-weight:bold;font-stretch:normal;font-family:TlwgTypewriter;-inkscape-font-specification:TlwgTypewriter Bold"
           id="path3018" />
        <path
           d="m -1441.8141,-796.99194 0,5.72099 c 0,0.54486 0.078,0.90486 0.2335,1.07999 0.3502,0.38918 1.1092,0.58377 2.2767,0.58377 1.5373,0 2.9578,-0.3308 4.2616,-0.99242 0.4086,-0.21404 0.7491,-0.32107 1.0216,-0.32107 0.3891,0 0.7199,0.14595 0.9924,0.43783 0.2724,0.29189 0.4086,0.64215 0.4086,1.05079 0,0.35027 -0.107,0.64216 -0.321,0.87567 -0.2141,0.21405 -0.5936,0.44756 -1.1384,0.70053 -0.7005,0.3308 -1.5665,0.60323 -2.5978,0.81728 -1.0119,0.23351 -1.8973,0.35026 -2.6562,0.35027 -1.654,-10e-6 -2.9675,-0.36 -3.9405,-1.07999 -0.9729,-0.71999 -1.4594,-1.70267 -1.4594,-2.94806 l 0,-6.27558 -1.0216,0 c -0.6422,10e-6 -1.0897,-0.0973 -1.3427,-0.29189 -0.3892,-0.29187 -0.5838,-0.68106 -0.5838,-1.16755 0,-0.5643 0.2336,-0.98267 0.7006,-1.25511 0.214,-0.1362 0.6227,-0.20431 1.2259,-0.20432 l 1.0216,0 0,-2.56861 c 0,-0.64214 0.097,-1.0897 0.2919,-1.34269 0.2919,-0.38916 0.6811,-0.58375 1.1675,-0.58377 0.5644,2e-5 0.9827,0.23353 1.2552,0.70053 0.1362,0.21407 0.2043,0.62271 0.2043,1.22593 l 0,2.56861 5.2831,0 c 0.6227,10e-6 1.0703,0.0876 1.3427,0.26269 0.3892,0.33082 0.5838,0.72973 0.5838,1.19674 0,0.56433 -0.2335,0.9827 -0.7005,1.25512 -0.2141,0.13622 -0.6227,0.20433 -1.226,0.20432 l -5.2831,0"
           style="font-variant:normal;font-weight:bold;font-stretch:normal;font-family:TlwgTypewriter;-inkscape-font-specification:TlwgTypewriter Bold"
           id="path3020" />
        <path
           d="m -1418.6789,-798.74326 0,-0.93404 c 0,-0.97295 -0.2919,-1.76104 -0.8756,-2.36429 -0.5643,-0.60322 -1.2941,-0.90484 -2.1892,-0.90485 -1.2259,1e-5 -2.2475,0.6227 -3.0648,1.86808 -0.8173,1.24539 -1.2259,2.80213 -1.2259,4.67019 l 0,4.55345 c 0,2.21834 0.4962,4.01832 1.4886,5.39992 0.6616,0.97295 1.6248,1.45943 2.8897,1.45943 1.4205,0 2.4227,-0.31135 3.0064,-0.93404 0.3308,-0.3308 0.6324,-0.49621 0.9049,-0.49621 0.3308,0 0.6032,0.11676 0.8173,0.35027 0.2335,0.23351 0.3502,0.51567 0.3502,0.84647 0,0.68107 -0.5156,1.26484 -1.547,1.75133 -1.0119,0.50593 -2.2183,0.7589 -3.6194,0.7589 -2.2962,0 -4.0378,-1.04106 -5.2248,-3.12319 -0.9145,-1.65403 -1.3718,-3.59021 -1.3718,-5.80856 l 0,-4.9329 c 0,-2.51022 0.6129,-4.58262 1.8389,-6.2172 1.2453,-1.63455 2.8215,-2.45184 4.7285,-2.45185 1.5762,10e-6 2.8703,0.52541 3.8821,1.57619 1.0119,1.05081 1.5178,2.38376 1.5179,3.99886 l 0,8.20203 c 0.4475,0.1946 0.6713,0.53513 0.6713,1.02161 0,0.79783 -0.5351,1.19674 -1.6054,1.19674 l -1.3719,0 0,-0.0876 c -0.4475,0.0584 -0.7686,0.0876 -0.9632,0.0876 -1.2454,0 -2.3156,-0.44756 -3.2107,-1.34269 -0.8952,-0.89511 -1.3427,-1.94591 -1.3427,-3.15238 0,-1.36213 0.5059,-2.50049 1.5178,-3.41508 1.0313,-0.93403 2.3643,-1.45943 3.9988,-1.57619 m 0,7.06367 0,-4.69939 c -0.9729,0.0973 -1.7513,0.3892 -2.3351,0.87567 -0.5837,0.46702 -0.8756,1.06053 -0.8756,1.78051 0,0.60324 0.2335,1.10918 0.7005,1.51781 0.467,0.38919 1.0508,0.58378 1.7513,0.58378 0.2335,0 0.4865,-0.0195 0.7589,-0.0584"
           style="font-variant:normal;font-weight:bold;font-stretch:normal;font-family:TlwgTypewriter;-inkscape-font-specification:TlwgTypewriter Bold"
           id="path3022" />
        <path
           d="m -1402.8408,-805.36911 0,15.2949 3.5611,0 c 0.6226,0 1.0605,0.0876 1.3135,0.2627 0.4086,0.31135 0.6129,0.71026 0.6129,1.19674 0,0.5254 -0.2335,0.94377 -0.7005,1.25511 -0.2335,0.13622 -0.6422,0.20433 -1.2259,0.20433 l -10.041,0 c -0.6616,0 -1.0994,-0.0973 -1.3135,-0.29189 -0.4086,-0.29189 -0.6129,-0.68107 -0.6129,-1.16755 0,-0.56432 0.2335,-0.98269 0.7005,-1.25512 0.1946,-0.13621 0.6032,-0.20432 1.2259,-0.20432 l 3.5611,0 0,-12.37603 -2.2768,0 c -0.681,2e-5 -1.1286,-0.0973 -1.3426,-0.29188 -0.4087,-0.27241 -0.613,-0.6616 -0.613,-1.16755 0,-0.5643 0.2335,-0.98267 0.7005,-1.25512 0.2141,-0.13619 0.6324,-0.2043 1.2551,-0.20432 l 5.1956,0"
           style="font-variant:normal;font-weight:bold;font-stretch:normal;font-family:TlwgTypewriter;-inkscape-font-specification:TlwgTypewriter Bold"
           id="path3024" />
        <path
           d="m -1385.3389,-799.91081 0,9.8366 3.561,0 c 0.6227,0 1.0605,0.0876 1.3135,0.2627 0.4086,0.31135 0.6129,0.71026 0.613,1.19674 -10e-5,0.5254 -0.2336,0.94377 -0.7006,1.25511 -0.2335,0.13622 -0.6421,0.20433 -1.2259,0.20433 l -10.0409,0 c -0.6616,0 -1.0995,-0.0973 -1.3135,-0.29189 -0.4087,-0.29189 -0.613,-0.68107 -0.613,-1.16755 0,-0.56432 0.2335,-0.98269 0.7005,-1.25512 0.1946,-0.13621 0.6033,-0.20432 1.226,-0.20432 l 3.561,0 0,-6.91773 -2.2767,0 c -0.6811,10e-6 -1.1287,-0.0973 -1.3427,-0.29189 -0.4086,-0.29187 -0.613,-0.68106 -0.613,-1.16755 0,-0.5643 0.2335,-0.98267 0.7006,-1.25511 0.214,-0.1362 0.6324,-0.20431 1.2551,-0.20432 l 5.1956,0 m -0.4087,-5.42911 0,3.06482 -3.4442,0 0,-3.06482 3.4442,0"
           style="font-variant:normal;font-weight:bold;font-stretch:normal;font-family:TlwgTypewriter;-inkscape-font-specification:TlwgTypewriter Bold"
           id="path3026" />
        <path
           d="m -1377.0607,-798.45138 c 0,-0.97294 0.6519,-1.45942 1.9556,-1.45943 l 2.7438,0 0,1.40106 c 0.7005,-0.6616 1.3426,-1.11889 1.9264,-1.37188 0.5838,-0.27241 1.2746,-0.40863 2.0724,-0.40864 1.5178,10e-6 2.7632,0.42812 3.7362,1.28431 0.9729,0.85621 1.4594,2.06268 1.4594,3.6194 l 0,5.31235 c 1.187,0 1.7805,0.48648 1.7805,1.45944 0,0.56432 -0.2335,0.98269 -0.7005,1.25511 -0.2141,0.13622 -0.6227,0.20433 -1.2259,0.20433 l -2.5978,0 c -1.3038,0 -1.9557,-0.48648 -1.9557,-1.45944 0,-0.97296 0.5935,-1.45944 1.7805,-1.45944 l 0,-5.19559 c 0,-1.40105 -0.8756,-2.10158 -2.6269,-2.10159 -0.6811,10e-6 -1.2941,0.14595 -1.8389,0.43783 -0.5254,0.29189 -1.1287,0.80756 -1.8097,1.547 l 0,5.31235 0.1751,0 c 0.6227,0 1.0605,0.0876 1.3135,0.2627 0.4086,0.31135 0.6129,0.71026 0.6129,1.19674 0,0.5254 -0.2335,0.94377 -0.7005,1.25511 -0.214,0.13622 -0.6227,0.20433 -1.2259,0.20433 l -3.2691,0 c -0.6227,0 -1.0703,-0.0973 -1.3427,-0.29189 -0.3892,-0.29189 -0.5838,-0.68107 -0.5838,-1.16755 0,-0.56432 0.2335,-0.98269 0.7005,-1.25512 0.253,-0.13621 0.6616,-0.20432 1.226,-0.20432 l 0.1751,0 0,-6.91773 c -1.187,-0.0389 -1.7805,-0.52539 -1.7805,-1.45944"
           style="font-variant:normal;font-weight:bold;font-stretch:normal;font-family:TlwgTypewriter;-inkscape-font-specification:TlwgTypewriter Bold"
           id="path3028" />
        <path
           d="m -1352.5828,-786.77588 c -1.5373,0 -2.7924,-0.4281 -3.7653,-1.28431 -0.9535,-0.87566 -1.4303,-2.09185 -1.4303,-3.64859 l 0,-5.28316 -0.7881,0 c -0.4864,10e-6 -0.8756,-0.1362 -1.1675,-0.40864 -0.2919,-0.27242 -0.4378,-0.62269 -0.4378,-1.0508 0,-0.5643 0.2335,-0.98267 0.7005,-1.25511 0.214,-0.1362 0.6227,-0.20431 1.2259,-0.20432 l 3.3859,0 0,8.11447 c 0,1.40106 0.8562,2.10159 2.5686,2.10159 0.7395,0 1.3524,-0.12649 1.8389,-0.37946 0.4865,-0.27242 1.1092,-0.80755 1.8681,-1.60538 l 0,-5.31235 -1.0216,0 c -0.5838,10e-6 -0.9633,-0.0584 -1.1384,-0.17513 -0.058,-0.0389 -0.1167,-0.0778 -0.1751,-0.11676 -0.4087,-0.33079 -0.613,-0.71998 -0.613,-1.16755 0,-0.5643 0.2335,-0.98267 0.7006,-1.25511 0.214,-0.1362 0.6226,-0.20431 1.2259,-0.20432 l 3.9405,0 0,9.8366 c 1.187,0 1.7805,0.48648 1.7805,1.45944 0,0.5254 -0.2336,0.94377 -0.7006,1.25511 -0.214,0.13622 -0.6227,0.20433 -1.2259,0.20433 l -2.7729,0 0,-1.40106 c -0.72,0.68107 -1.3719,1.14809 -1.9557,1.40106 -0.5643,0.25296 -1.2454,0.37945 -2.0432,0.37945"
           style="font-variant:normal;font-weight:bold;font-stretch:normal;font-family:TlwgTypewriter;-inkscape-font-specification:TlwgTypewriter Bold"
           id="path3030" />
        <path
           d="m -1333.3004,-798.42219 c 0,-0.9924 0.6421,-1.48861 1.9264,-1.48862 l 2.6562,0 c 0.6422,10e-6 1.0897,0.0876 1.3427,0.26269 0.4086,0.31136 0.6129,0.71028 0.613,1.19674 -10e-5,0.87568 -0.5157,1.36215 -1.547,1.45944 l -3.853,3.21076 4.4367,3.70697 c 1.0508,0.0584 1.5762,0.54486 1.5762,1.45944 0,0.54486 -0.2335,0.96323 -0.7005,1.25511 -0.2141,0.13622 -0.6227,0.20433 -1.2259,0.20433 l -3.2692,0 c -0.6421,0 -1.0994,-0.0973 -1.3718,-0.29189 -0.3892,-0.29189 -0.5838,-0.6908 -0.5838,-1.19674 0,-0.73945 0.3892,-1.2162 1.1675,-1.43025 l -2.1891,-1.78051 -2.1308,1.78051 c 0.7394,0.31135 1.1092,0.7881 1.1092,1.43025 0,0.99242 -0.6422,1.48863 -1.9265,1.48863 l -3.2399,0 c -1.2843,0 -1.9265,-0.48648 -1.9265,-1.45944 0,-0.91458 0.5254,-1.40106 1.5762,-1.45944 l 4.2324,-3.73616 -3.7362,-3.18157 c -1.0119,-0.0973 -1.5178,-0.58376 -1.5178,-1.45944 0,-0.97294 0.6421,-1.45942 1.9265,-1.45943 l 2.6853,0 c 0.6616,10e-6 1.1092,0.0973 1.3427,0.29188 0.3892,0.2919 0.5838,0.67136 0.5838,1.13836 0,0.56433 -0.253,1.01189 -0.7589,1.34269 l 1.7805,1.43024 1.7805,-1.45943 c -0.506,-0.35026 -0.7589,-0.76863 -0.7589,-1.25512"
           style="font-variant:normal;font-weight:bold;font-stretch:normal;font-family:TlwgTypewriter;-inkscape-font-specification:TlwgTypewriter Bold"
           id="path3032" />
        <path
           d="m -1316.5283,-786.7175 -0.5254,0 c -0.5254,0 -0.9827,-0.18487 -1.3719,-0.55459 -0.3697,-0.38918 -0.5545,-0.84647 -0.5545,-1.37187 0,-0.5254 0.1848,-0.97296 0.5545,-1.34268 0.3892,-0.38918 0.8465,-0.58377 1.3719,-0.58378 l 0.5254,0 c 0.5449,10e-6 1.0022,0.18487 1.3719,0.55459 0.3697,0.36973 0.5546,0.82702 0.5546,1.37187 0,0.54486 -0.1849,1.00215 -0.5546,1.37187 -0.3697,0.36972 -0.827,0.55459 -1.3719,0.55459 m 0,-9.31121 -0.5254,0 c -0.5254,1e-5 -0.9827,-0.18485 -1.3719,-0.55459 -0.3697,-0.38917 -0.5545,-0.84646 -0.5545,-1.37187 0,-0.54484 0.1848,-1.00213 0.5545,-1.37187 0.3892,-0.38917 0.8465,-0.58376 1.3719,-0.58377 l 0.5254,0 c 0.5449,10e-6 1.0022,0.1946 1.3719,0.58377 0.3697,0.36974 0.5546,0.82703 0.5546,1.37187 0,0.54487 -0.1849,1.00216 -0.5546,1.37187 -0.3697,0.36974 -0.827,0.5546 -1.3719,0.55459"
           style="font-variant:normal;font-weight:bold;font-stretch:normal;font-family:TlwgTypewriter;-inkscape-font-specification:TlwgTypewriter Bold"
           id="path3034" />
        <path
           d="m -1293.8017,-797.78004 c 0.3892,10e-6 0.7297,0.14596 1.0216,0.43783 0.2919,0.2919 0.4379,0.63244 0.4379,1.02161 0,0.48649 -0.399,1.19675 -1.1968,2.13078 -1.0119,1.20647 -2.0432,1.80971 -3.094,1.8097 -1.0508,1e-5 -2.3837,-0.72971 -3.9988,-2.18915 -0.6227,-0.52539 -1.0314,-0.78809 -1.226,-0.7881 -0.2529,10e-6 -0.7102,0.40865 -1.3718,1.22593 -0.3892,0.46702 -0.6811,0.76864 -0.8757,0.90485 -0.1751,0.13622 -0.3892,0.20432 -0.6421,0.20432 -0.3892,0 -0.7395,-0.14594 -1.0508,-0.43783 -0.2919,-0.31134 -0.4379,-0.66161 -0.4379,-1.0508 0,-0.52539 0.3795,-1.20646 1.1384,-2.04321 1.0702,-1.22592 2.1599,-1.83888 3.2691,-1.83889 0.6227,10e-6 1.1968,0.15568 1.7222,0.46702 0.5254,0.2919 1.2843,0.89513 2.2767,1.8097 0.5448,0.44757 0.9243,0.67135 1.1383,0.67134 0.2725,10e-6 0.7492,-0.44755 1.4303,-1.34268 0.2919,-0.38917 0.5351,-0.65187 0.7297,-0.7881 0.1946,-0.1362 0.4378,-0.20431 0.7297,-0.20432"
           style="font-variant:normal;font-weight:bold;font-stretch:normal;font-family:TlwgTypewriter;-inkscape-font-specification:TlwgTypewriter Bold"
           id="path3036" />
      </g>
    </g>
  </g>
</svg>
