<?xml version="1.0" encoding="UTF-8" standalone="no"?>
<!-- Created with Inkscape (http://www.inkscape.org/) -->

<svg
   xmlns:dc="http://purl.org/dc/elements/1.1/"
   xmlns:cc="http://creativecommons.org/ns#"
   xmlns:rdf="http://www.w3.org/1999/02/22-rdf-syntax-ns#"
   xmlns:svg="http://www.w3.org/2000/svg"
   xmlns="http://www.w3.org/2000/svg"
   xmlns:sodipodi="http://sodipodi.sourceforge.net/DTD/sodipodi-0.dtd"
   xmlns:inkscape="http://www.inkscape.org/namespaces/inkscape"
   id="svg2"
   version="1.1"
   inkscape:version="0.48.4 r9939"
   width="826.66248"
   height="661.5"
   xml:space="preserve"
   sodipodi:docname="unide-logo.svg"
   inkscape:export-filename="/home/xavier/Documents/HiveTech/logo/unide-wallpaper-mobile.png"
   inkscape:export-xdpi="90"
   inkscape:export-ydpi="90"><metadata
     id="metadata8"><rdf:RDF><cc:Work
         rdf:about=""><dc:format>image/svg+xml</dc:format><dc:type
           rdf:resource="http://purl.org/dc/dcmitype/StillImage" /><dc:title /></cc:Work></rdf:RDF></metadata><defs
     id="defs6" /><sodipodi:namedview
     pagecolor="#ffffff"
     bordercolor="#666666"
     borderopacity="1"
     objecttolerance="10"
     gridtolerance="10"
     guidetolerance="10"
     inkscape:pageopacity="0"
     inkscape:pageshadow="2"
     inkscape:window-width="1366"
     inkscape:window-height="707"
     id="namedview4"
     showgrid="false"
     inkscape:zoom="0.43453073"
     inkscape:cx="418.54586"
     inkscape:cy="334.46798"
     inkscape:window-x="0"
     inkscape:window-y="29"
     inkscape:window-maximized="1"
     inkscape:current-layer="g12"><sodipodi:guide
       position="0,0"
       orientation="0,661.5"
       id="guide2993" /><sodipodi:guide
       position="661.5,0"
       orientation="-826.66248,0"
       id="guide2995" /><sodipodi:guide
       position="661.5,826.66248"
       orientation="0,-661.5"
       id="guide2997" /><sodipodi:guide
       position="0,826.66248"
       orientation="826.66248,0"
       id="guide2999" /><inkscape:grid
       type="xygrid"
       id="grid3001"
       empspacing="5"
       visible="true"
       enabled="true"
       snapvisiblegridlinesonly="true" /></sodipodi:namedview><g
     id="g10"
     inkscape:groupmode="layer"
     inkscape:label="ink_ext_XXXXXX"
     transform="matrix(1.25,0,0,-1.25,0,661.50002)"><g
       id="g12"
       transform="scale(0.1,0.1)"><path
         d="m 1009.7797,2442.249 3387.9728,0 0,1278.2852 -3387.9728,0 0,-1278.2852 z"
         style="opacity:0;fill:#43454a;fill-opacity:1;fill-rule:nonzero;stroke:none"
         id="path34"
         inkscape:connector-curvature="0" /><path
         d="m 3054.6731,2451.2306 -290.125,0 0,1540.8193 290.125,0 0,-1540.8193 z m -146.6264,1819.3626 c -52.0024,0 -96.2165,16.2892 -132.5826,48.8869 -36.4059,32.5972 -54.5792,76.5335 -54.5792,131.8648 0,55.2752 18.1733,99.2492 54.5792,131.8652 36.3661,32.5787 80.5802,48.8863 132.5826,48.8863 51.983,0 96.1971,-16.3076 132.6024,-48.8863 36.3667,-32.616 54.5991,-76.59 54.5991,-131.8652 0,-55.3313 -18.2324,-99.2676 -54.5991,-131.8648 -36.4053,-32.5977 -80.6194,-48.8869 -132.6024,-48.8869"
         style="fill:#c2c3c4;fill-opacity:1;fill-rule:nonzero;stroke:none"
         id="path36"
         inkscape:connector-curvature="0" /><path
         d="m 4545.931,3666.1147 c -35.4026,27.6258 -86.3434,54.3035 -152.8997,80.0077 -66.577,25.6482 -139.3688,38.5189 -218.3756,38.5189 -83.2158,0 -154.4343,-14.365 -213.7145,-42.9648 -59.2597,-28.6557 -107.6237,-68.1648 -145.0522,-118.527 -37.4486,-50.3643 -64.4916,-110.1417 -81.1313,-179.274 -16.6585,-69.1757 -24.9394,-143.2414 -24.9394,-222.224 0,-179.7764 46.791,-318.5384 140.3918,-416.3111 93.5804,-97.7939 218.3749,-146.6771 374.3829,-146.6771 79.0071,0 145.0526,3.4147 198.0972,10.3619 53.0255,6.9176 94.0731,14.317 123.2408,22.2336 l 0,974.8559 z m 0,1037.0796 290.1251,47.4107 0,-2254.913 c -66.5965,-17.7988 -151.8382,-35.566 -255.8236,-53.3269 -104.0248,-17.7916 -223.588,-26.6779 -358.7668,-26.6779 -124.7942,0 -237.1188,18.789 -336.9347,56.3029 -99.8556,37.5065 -185.1366,90.8183 -255.8238,159.981 -70.7458,69.1527 -125.3252,153.5881 -163.7963,253.3601 -38.5103,99.735 -57.7261,211.8699 -57.7261,336.3203 0,118.5253 16.0889,227.1353 48.3641,325.9356 32.2163,98.7446 79.5573,183.722 141.9646,254.8379 62.3877,71.0976 138.8181,126.3727 229.291,165.9382 90.4737,39.4904 193.9087,59.2359 310.4227,59.2359 93.581,0 176.2464,-11.8436 248.0149,-35.5492 71.7498,-23.6867 125.2863,-46.4209 160.6889,-68.1272 l 0,779.2716"
         style="fill:#c2c3c4;fill-opacity:1;fill-rule:nonzero;stroke:none"
         id="path38"
         inkscape:connector-curvature="0" /><path
         d="m 6302.2964,3369.8021 c 2.0652,124.4524 -30.6822,226.6682 -98.2622,306.68 -67.5993,80.0079 -160.6691,120.0028 -279.2089,120.0028 -66.5962,0 -125.3253,-12.3481 -176.2657,-37.0246 -50.9995,-24.7142 -94.132,-56.826 -129.4757,-96.2955 -35.4023,-39.5635 -62.9379,-84.9587 -82.6846,-136.3147 -19.7864,-51.3859 -32.7476,-103.714 -38.9822,-157.048 l 804.8793,0 z M 5188.5485,3218.7037 c 0,136.2865 20.7697,255.2787 62.3871,357.0366 41.5983,101.7129 96.7285,186.1671 165.37,253.3415 68.6224,67.1378 147.629,117.5 237.0994,151.1245 89.3917,33.5687 180.9271,50.3809 274.5278,50.3809 218.3952,0 385.7712,-64.7271 502.2854,-194.0894 116.4546,-129.4172 174.7122,-326.4601 174.7122,-591.139 0,-11.8431 0,-27.1818 0,-45.9349 0,-18.7744 -1.082,-36.0534 -3.1079,-51.8589 l -1110.66,0 c 12.4892,-159.9958 61.3255,-281.4765 146.646,-364.4511 85.2412,-82.9672 218.3948,-124.4506 399.3223,-124.4506 101.8808,0 187.6731,8.3692 257.3774,25.1814 69.6642,16.7542 122.1583,33.0642 157.5613,48.9053 l 40.5556,-231.1327 c -35.4028,-17.7689 -97.2394,-36.5798 -185.6278,-56.3049 -88.4283,-19.7095 -188.7555,-29.6252 -301.0602,-29.6252 -141.4533,0 -263.6124,20.2629 -366.5946,60.7468 -102.9432,40.4619 -187.7128,96.2996 -254.2308,167.3955 -66.596,71.1161 -115.9828,155.572 -148.1993,253.3585 -32.2754,97.7807 -48.3639,204.9089 -48.3639,321.5157"
         style="fill:#c2c3c4;fill-opacity:1;fill-rule:nonzero;stroke:none"
         id="path40"
         inkscape:connector-curvature="0" /><path
         d="m 1308.0434,2457.4324 c -66.5967,-15.8338 -154.4346,-32.5955 -263.6323,-50.3772 -109.17755,-17.7836 -235.52563,-26.6569 -379.04416,-26.6569 -124.79439,0 -229.84214,17.3014 -315.10349,51.8602 -85.32031,34.5369 -153.94243,83.4192 -205.88638,146.6561 -52.021833,63.1997 -89.449972,137.8038 -112.32454,223.7187 -22.9130862,85.9446 -34.3010287,181.2 -34.3010287,285.9431 l 0,865.2158 290.1051187,0 0,-805.9508 c 0,-187.68 31.21324,-322.0257 93.60043,-402.9848 62.40722,-81.0207 167.39559,-121.4827 315.10347,-121.4827 31.21327,0 63.41056,0.9569 96.72797,2.9704 33.21988,1.9262 64.43264,4.4296 93.60036,7.3993 29.08978,2.9478 55.60225,5.9176 79.5387,8.8882 23.85702,2.9704 41.02745,6.3923 51.47135,10.3546 l 0,1300.8058 290.1445,0 0,-1496.3598"
         style="fill:#ee2729;fill-opacity:1;fill-rule:nonzero;stroke:none"
         id="path62"
         inkscape:connector-curvature="0" /><path
         d="m 1026.4149,3947.5904 c 66.5569,15.7851 154.9066,32.5973 265.2054,50.3624 110.2009,17.7839 237.0796,26.657 380.5785,26.657 128.9443,0 236.0376,-17.2979 321.3581,-51.8379 85.2613,-34.5963 153.3523,-82.9784 204.3323,-145.2032 50.9598,-62.2242 86.8146,-136.798 107.6438,-223.6992 20.7691,-86.9593 31.1935,-182.7319 31.1935,-287.4299 l 0,-865.209 -290.1444,0 0,805.9492 c 0,94.825 -6.7659,175.7865 -20.2779,242.9777 -13.5319,67.1394 -35.8748,121.4805 -67.0684,162.9642 -31.2136,41.493 -72.8114,71.6055 -124.7943,90.3797 -52.0027,18.7361 -116.5143,28.1325 -193.4167,28.1325 -31.2131,0 -63.469,-0.9904 -96.7279,-2.9329 -33.2783,-1.9992 -65.0031,-4.4648 -95.1545,-7.4162 -30.1709,-2.9702 -57.2341,-6.4444 -81.1114,-10.3862 -23.9162,-3.9792 -41.0671,-6.9304 -51.4715,-8.8919 l 0,-1300.7761 -290.1446,0 0,1496.3598"
         style="fill:#ee2729;fill-opacity:1;fill-rule:nonzero;stroke:none"
         id="path64"
         inkscape:connector-curvature="0" /><flowRoot
         xml:space="preserve"
         id="flowRoot3041"
         style="font-size:40px;font-style:normal;font-weight:normal;line-height:125%;letter-spacing:0px;word-spacing:0px;fill:#000000;fill-opacity:1;stroke:none;font-family:Sans"><flowRegion
           id="flowRegion3043"><rect
             id="rect3045"
             width="233.44392"
             height="75.544189"
             x="390.72446"
             y="105.27739" /></flowRegion><flowPara
           id="flowPara3047" /></flowRoot></g></g></svg>